<svg width="16" height="16" viewBox="0 0 16 16" fill="none" xmlns="http://www.w3.org/2000/svg">
<path fill-rule="evenodd" clip-rule="evenodd" d="M7.6223 6.92074L10.0956 4.47203C10.7959 3.77869 11.9313 3.77869 12.6316 4.47203C13.3319 5.16537 13.3319 6.28949 12.6316 6.98283L11.1469 8.45273C11.2238 8.51377 11.298 8.57957 11.3693 8.65013C11.5422 8.82131 11.6868 9.00987 11.8032 9.21014L13.3422 7.68639C14.435 6.60449 14.435 4.85037 13.3422 3.76846C12.2494 2.68655 10.4777 2.68655 9.38496 3.76846L6.91168 6.21717C5.96877 7.15071 5.83946 8.58473 6.52375 9.65553L7.26316 8.92348C6.95555 8.26682 7.07526 7.46234 7.6223 6.92074Z" fill="#287EFF"/>
<path fill-rule="evenodd" clip-rule="evenodd" d="M8.94689 9.95814L6.07438 12.8021C5.40922 13.4607 4.33078 13.4607 3.66562 12.8021C3.00046 12.1436 3.00046 11.0758 3.66562 10.4173L5.50419 8.59699C5.37491 8.5077 5.25174 8.40595 5.13639 8.29175C5.00891 8.16553 4.89679 8.02986 4.80004 7.88701L2.95499 9.71372C1.89736 10.7608 1.89736 12.4586 2.95499 13.5057C4.01262 14.5528 5.72738 14.5528 6.78501 13.5057L9.65752 10.6617C10.5877 9.74081 10.6998 8.3167 9.99388 7.27449L9.26074 8.00034C9.58663 8.6337 9.48202 9.42833 8.94689 9.95814Z" fill="#287EFF"/>
</svg>
