<svg width="45" height="48" viewBox="0 0 45 48" fill="none" xmlns="http://www.w3.org/2000/svg">
<path d="M1.5868 46.45H2.02681C2.45681 46.45 2.7468 46.06 2.8968 45.67L17.3768 20.38L10.3768 20.18L16.8068 0H9.12681C8.65578 0.05578 8.21266 0.252779 7.85569 0.565125C7.49873 0.87747 7.24463 1.29054 7.12681 1.75L0.126813 24.51C-0.303187 25.68 0.41681 27.04 1.43681 27.04H6.06681L0.706799 44.56C0.286799 45.48 0.866804 46.45 1.5868 46.45Z" />
<path d="M37.8768 17.2797L30.8768 17.2796V27.2697L37.8768 27.2697V17.2797Z" />
<path d="M25.8168 20.2695L18.8668 20.2699L18.8168 30.2595H25.8168V20.2695Z" />
<path d="M37.7868 27.2699V20.2699H18.8668V27.2699H37.7868Z" />
<path d="M44.9768 47.5195V40.5195H36.0768V47.5195H44.9768Z" />
<path d="M37.9768 42.8594H44.9768V30.1994H37.9768V42.8594Z" />
<path fill-rule="evenodd" clip-rule="evenodd" d="M24.5173 7.78989C23.2682 7.27646 21.93 7.01469 20.5796 7.0196L20.5541 0.0196452C22.826 0.0113897 25.0772 0.451769 27.1785 1.31546C29.2798 2.17916 31.1899 3.44922 32.7993 5.05278C34.4087 6.65634 35.6857 8.56185 36.557 10.66C37.4283 12.7582 37.8768 15.0078 37.8768 17.2797L30.8768 17.2796C30.8768 15.9291 30.6102 14.5919 30.0923 13.3447C29.5743 12.0974 28.8153 10.9647 27.8586 10.0115C26.9019 9.05827 25.7664 8.3033 24.5173 7.78989Z" />
<path fill-rule="evenodd" clip-rule="evenodd" d="M25.8168 30.2393C25.8168 32.9604 26.8978 35.5701 28.8219 37.4942C30.746 39.4183 33.3557 40.4993 36.0768 40.4993V47.4993C31.4992 47.4993 27.1091 45.6808 23.8722 42.4439C20.6353 39.207 18.8168 34.8169 18.8168 30.2393H25.8168Z" />
</svg>
