<svg width="124" height="124" viewBox="0 0 124 124" fill="none" xmlns="http://www.w3.org/2000/svg">
<path fill-rule="evenodd" clip-rule="evenodd" d="M41.1114 74.6559C41.3882 74.2731 41.501 73.8203 41.4319 73.3817C41.3628 72.9431 41.1118 72.5188 40.7455 72.2539C40.3791 71.9891 39.8975 71.8837 39.4593 71.9556C39.0212 72.0275 38.6266 72.2766 38.3498 72.6594L31.7765 81.7518C31.4997 82.1347 31.3869 82.5874 31.456 83.026C31.5251 83.4646 31.7761 83.8889 32.1424 84.1538C32.5088 84.4186 32.9904 84.524 33.4285 84.4521C33.8667 84.3802 34.2613 84.1312 34.5381 83.7483L41.1114 74.6559ZM48.8034 76.8469C49.3111 76.0515 49.0764 74.9921 48.2819 74.485C47.4875 73.9779 46.4277 74.2109 45.92 75.0063L35.9561 90.6154C35.4484 91.4107 35.6832 92.4702 36.4776 92.9773C37.272 93.4844 38.3319 93.2513 38.8396 92.456L48.8034 76.8469ZM54.2322 79.2457C55.0452 79.7225 55.3239 80.7652 54.8336 81.6012L48.6519 92.1419C48.1616 92.9779 47.1155 93.2436 46.3025 92.7669C45.4896 92.2901 45.2108 91.2473 45.701 90.4113L51.8827 79.8707C52.373 79.0347 53.4192 78.7689 54.2322 79.2457Z" fill="#E3E4E5"/>
<path d="M57.4475 66.1551C61.5268 66.1551 64.8337 62.8482 64.8337 58.769C64.8337 54.6897 61.5268 51.3828 57.4475 51.3828C53.3683 51.3828 50.0614 54.6897 50.0614 58.769C50.0614 62.8482 53.3683 66.1551 57.4475 66.1551Z" fill="#E3E4E5"/>
<path fill-rule="evenodd" clip-rule="evenodd" d="M75.948 88.3532C94.1011 82.455 107.224 65.4001 107.224 45.2803C107.224 20.2727 86.9509 0 61.9433 0C36.9357 0 16.6631 20.2727 16.6631 45.2803C16.6631 49.6629 17.2857 53.9 18.4473 57.9082L63.9619 35.2929C67.6358 33.4674 71.989 35.9433 72.2981 40.0341L75.948 88.3532Z" fill="#E3E4E5"/>
</svg>
