<svg width="119" height="199" viewBox="0 0 119 199" fill="none" xmlns="http://www.w3.org/2000/svg">
<path d="M10.7034 198.991H13.684C14.9504 198.954 16.1808 198.561 17.2349 197.856C18.289 197.152 19.1242 196.165 19.6453 195.008L119 65.5566L71.3097 64.5609L115.026 -39H62.3678C59.4443 -38.9628 56.59 -38.1029 54.1306 -36.5183C51.6712 -34.9337 49.7057 -32.6882 48.4582 -30.038L0.767946 86.4679C0.139973 87.9137 -0.109254 89.4963 0.0438704 91.0656C0.196995 92.635 0.747403 94.1391 1.64294 95.4356C2.53848 96.7321 3.74948 97.7779 5.1612 98.4739C6.57292 99.17 8.13859 99.4933 9.70986 99.4131H41.5033L4.74213 189.033C4.12684 190.055 3.80098 191.226 3.79955 192.42C3.79813 193.614 4.12119 194.785 4.73404 195.809C5.34688 196.833 6.22636 197.67 7.27805 198.23C8.32974 198.791 9.51392 199.054 10.7034 198.991Z" fill="url(#paint0_linear_918_48266)" fill-opacity="0.3"/>
<defs>
<linearGradient id="paint0_linear_918_48266" x1="-0.921078" y1="79.9954" x2="119.099" y2="79.9954" gradientUnits="userSpaceOnUse">
<stop stop-color="#FF951A"/>
<stop offset="1" stop-color="#F95601"/>
</linearGradient>
</defs>
</svg>
