<svg width="159" height="26" viewBox="0 0 159 26" fill="none" xmlns="http://www.w3.org/2000/svg">
<g clip-path="url(#clip0_15487_13934)">
<path d="M35.6773 9.70001C35.7218 9.27214 35.8507 8.85735 36.0567 8.4797C36.2627 8.10205 36.5416 7.76905 36.8773 7.50001C37.1865 7.21783 37.5498 7.00141 37.9452 6.86389C38.3405 6.72637 38.7597 6.67061 39.1773 6.70001H40.5773L38.2773 24H35.9773C35.5596 23.9825 35.1651 23.8032 34.8773 23.5C34.7275 23.3432 34.6211 23.1501 34.5685 22.9397C34.5159 22.7293 34.5189 22.5089 34.5773 22.3L34.6773 21.2C33.8017 22.0627 32.7876 22.7726 31.6773 23.3C30.7822 23.7663 29.7866 24.0066 28.7773 24C27.8527 24.0176 26.9342 23.8475 26.0773 23.5C25.4373 23.1715 24.8879 22.6907 24.4773 22.1C24.0822 21.4647 23.8424 20.7453 23.7773 20C23.7165 18.9991 23.75 17.9947 23.8773 17L24.7773 10.2C24.9137 9.22051 25.4134 8.32811 26.1773 7.70001C26.9344 7.06415 27.8887 6.71071 28.8773 6.70001H29.7773L28.4773 16.3C28.3525 16.9252 28.3188 17.5652 28.3773 18.2C28.4773 18.6 28.5773 19 28.6773 19.3C28.8296 19.6023 29.075 19.8477 29.3773 20C29.7071 20.2046 30.0893 20.3089 30.4773 20.3C31.1238 20.2847 31.7509 20.0757 32.2773 19.7C33.0329 19.1681 33.7361 18.5654 34.3773 17.9L35.6773 9.70001Z" fill="white"/>
<path d="M49.2773 12.9L47.9773 22.2C47.874 22.7428 47.5925 23.2355 47.1773 23.6C46.9905 23.7747 46.7699 23.9091 46.5291 23.9951C46.2883 24.0811 46.0324 24.1168 45.7773 24.1H43.2773L45.3773 9.00003C45.4128 8.68673 45.5108 8.38374 45.6653 8.10893C45.8199 7.83412 46.028 7.59308 46.2773 7.40003C46.7506 6.99724 47.356 6.78355 47.9773 6.80002H49.4773L49.1773 9.50003C50.0628 8.69431 51.0355 7.98996 52.0773 7.40003C52.9684 6.92296 53.9667 6.68197 54.9773 6.70003C55.8695 6.68155 56.7556 6.85195 57.5773 7.20003C58.2088 7.50217 58.7324 7.99083 59.0773 8.60002C59.4724 9.23529 59.7122 9.95474 59.7773 10.7C59.8897 11.6662 59.856 12.6439 59.6773 13.6L58.4773 24.1H54.0773L55.1773 14.3C55.2552 13.7033 55.2887 13.1017 55.2773 12.5C55.1773 12.1 55.0773 11.7 54.9773 11.4C54.825 11.0977 54.5796 10.8524 54.2773 10.7C53.8888 10.5768 53.4848 10.5095 53.0773 10.5C52.4308 10.5153 51.8037 10.7243 51.2773 11.1C50.5566 11.6371 49.8871 12.2397 49.2773 12.9Z" fill="white"/>
<path d="M68.9773 12.9L67.6773 22.2C67.574 22.7428 67.2925 23.2355 66.8773 23.6C66.6905 23.7747 66.4699 23.9091 66.2291 23.9951C65.9883 24.0811 65.7324 24.1168 65.4773 24.1H62.9773L65.0773 9.00003C65.1128 8.68673 65.2108 8.38374 65.3653 8.10893C65.5199 7.83412 65.728 7.59308 65.9773 7.40003C66.4506 6.99724 67.056 6.78355 67.6773 6.80002H69.1773L68.7773 9.50003C69.6628 8.69431 70.6355 7.98996 71.6773 7.40003C72.5684 6.92296 73.5667 6.68197 74.5773 6.70003C75.4695 6.68155 76.3556 6.85195 77.1773 7.20003C77.8088 7.50217 78.3324 7.99083 78.6773 8.60002C79.0724 9.23529 79.3122 9.95474 79.3773 10.7C79.4897 11.6662 79.456 12.6439 79.2773 13.6L78.0773 24.1H73.6773L74.7773 14.3C74.8552 13.7033 74.8887 13.1017 74.8773 12.5C74.7773 12.1 74.6773 11.7 74.5773 11.4C74.425 11.0977 74.1796 10.8524 73.8773 10.7C73.5475 10.4954 73.1653 10.3912 72.7773 10.4C72.1308 10.4153 71.5037 10.6243 70.9773 11C70.2603 11.5781 69.5914 12.2136 68.9773 12.9Z" fill="white"/>
<path d="M149.177 25.3H119.077C115.677 25.3 113.377 22.4 113.977 18.9L116.077 6.4C116.4 4.66909 117.295 3.09694 118.619 1.9362C119.943 0.775462 121.619 0.0935314 123.377 0H153.477C156.877 0 159.177 2.9 158.577 6.4L156.477 18.9C156.184 20.6443 155.297 22.2337 153.967 23.3998C152.637 24.5658 150.945 25.237 149.177 25.3Z" fill="url(#paint0_linear_15487_13934)"/>
<path d="M151.477 8.56001C152.097 9.28731 152.566 10.1302 152.858 11.0399C153.15 11.9496 153.258 12.9081 153.177 13.86C153.162 16.3069 152.235 18.6603 150.577 20.46C149.814 21.281 148.883 21.929 147.848 22.3602C146.813 22.7914 145.698 22.996 144.577 22.96C143.641 22.996 142.708 22.8267 141.845 22.4639C140.981 22.1011 140.207 21.5537 139.577 20.86C138.929 20.1479 138.434 19.3097 138.124 18.3978C137.815 17.4858 137.697 16.5197 137.777 15.56C137.832 13.1508 138.756 10.8426 140.377 9.06001C141.162 8.23161 142.108 7.57333 143.157 7.12605C144.206 6.67877 145.337 6.45207 146.477 6.46001C147.413 6.42674 148.345 6.59732 149.208 6.95993C150.072 7.32254 150.846 7.86851 151.477 8.56001ZM148.177 17.86C149.105 16.8144 149.605 15.4576 149.577 14.06C149.67 13.0126 149.347 11.9708 148.677 11.16C148.366 10.773 147.969 10.4633 147.518 10.2551C147.067 10.0469 146.574 9.94592 146.077 9.96001C145.467 9.96385 144.865 10.0999 144.313 10.3589C143.76 10.6178 143.271 10.9935 142.877 11.46C141.951 12.467 141.45 13.7924 141.477 15.16C141.389 16.2376 141.711 17.3087 142.377 18.16C142.677 18.5281 143.06 18.8198 143.495 19.011C143.929 19.2023 144.403 19.2876 144.877 19.26C145.501 19.3322 146.134 19.2412 146.712 18.9958C147.291 18.7504 147.795 18.359 148.177 17.86Z" fill="white"/>
<path d="M1.07729 23.9H1.37729C1.50475 23.8963 1.62859 23.8568 1.73468 23.7861C1.84078 23.7154 1.92484 23.6162 1.97729 23.5L11.9773 10.5L7.17729 10.4L11.5773 0H6.27729C5.98304 0.00373351 5.69576 0.0900898 5.44822 0.249222C5.20068 0.408354 5.00285 0.633856 4.87729 0.900002L0.0772934 12.6C0.0140882 12.7452 -0.0109964 12.9041 0.00441554 13.0617C0.0198275 13.2193 0.0752258 13.3704 0.165361 13.5006C0.255497 13.6308 0.377383 13.7358 0.519472 13.8057C0.661561 13.8756 0.819146 13.9081 0.977293 13.9H4.17729L0.477293 22.9C0.415364 23.0027 0.382567 23.1202 0.382423 23.2401C0.38228 23.36 0.414796 23.4777 0.476479 23.5805C0.538161 23.6833 0.62668 23.7674 0.732533 23.8236C0.838385 23.8799 0.957572 23.9063 1.07729 23.9Z" fill="url(#paint1_linear_15487_13934)"/>
<path d="M22.7773 3.69997C22.609 2.96283 22.266 2.27692 21.7773 1.69997C21.4056 1.25045 20.9231 0.905744 20.3773 0.699972C19.5446 0.268966 18.6141 0.0621809 17.6773 0.0999695H12.7773L11.3773 3.39997H13.1773C13.6463 3.37571 14.1165 3.40929 14.5773 3.49997C14.8773 3.49997 15.1773 3.59997 15.4773 3.59997C15.8314 3.66296 16.1672 3.80313 16.461 4.01052C16.7548 4.21791 16.9994 4.48744 17.1773 4.79997C17.496 5.45268 17.567 6.19884 17.3773 6.89997C17.3174 7.42943 17.147 7.94044 16.8773 8.39997C16.6051 8.84717 16.2681 9.25156 15.8773 9.59997C15.4409 9.95055 14.9263 10.1907 14.3773 10.3C13.9494 10.4222 13.5155 10.5223 13.0773 10.6L10.4773 14.1C11.0683 14.2229 11.64 14.4247 12.1773 14.7C12.5735 14.8769 12.9178 15.1523 13.1773 15.5C13.4894 15.8485 13.7275 16.2568 13.8773 16.7C14.1087 17.2551 14.309 17.8226 14.4773 18.4L15.9773 24.1H20.4773C20.6216 24.1183 20.7679 24.0892 20.8942 24.017C21.0205 23.9449 21.1198 23.8336 21.1773 23.7C21.3471 23.4703 21.4191 23.1826 21.3773 22.9L19.8773 17.6C19.6773 17 19.4773 16.5 19.2773 16C19.0773 15.5 18.8773 15.1 18.6773 14.7C18.4929 14.3358 18.2173 14.0257 17.8773 13.8C17.5864 13.5113 17.2481 13.2745 16.8773 13.1C17.6445 12.8469 18.3821 12.5116 19.0773 12.1C19.7062 11.7145 20.2784 11.2433 20.7773 10.7C21.2691 10.1295 21.6735 9.4892 21.9773 8.79997C22.2822 8.06457 22.4841 7.2906 22.5773 6.49997C22.8784 5.59832 22.9472 4.63527 22.7773 3.69997Z" fill="white"/>
<path d="M110.837 6.49998C111.08 6.51906 111.321 6.55921 111.557 6.61998C112.056 6.75554 112.538 6.94324 112.997 7.17998C112.857 7.42998 112.697 7.75998 112.497 8.17998C112.297 8.59998 112.107 8.99998 111.907 9.41998C111.707 9.83998 111.467 10.35 111.197 10.94L110.727 10.76C110.597 10.71 110.467 10.68 110.327 10.64C110.078 10.5841 109.822 10.5639 109.567 10.58C109.285 10.5798 109.004 10.6271 108.737 10.72C108.447 10.8374 108.172 10.9884 107.917 11.17C107.589 11.429 107.278 11.7096 106.987 12.01C106.601 12.4203 106.237 12.8509 105.897 13.3L104.827 20.89C104.711 21.7117 104.302 22.4641 103.677 23.01C103.064 23.5484 102.273 23.8405 101.457 23.83H100.077L102.157 8.93998C102.245 8.37458 102.528 7.85781 102.957 7.47998C103.38 7.10189 103.93 6.89819 104.497 6.90998H106.167L105.807 9.39998C106.231 8.8927 106.682 8.40867 107.157 7.94998C107.521 7.62062 107.913 7.32287 108.327 7.05998C108.928 6.6866 109.62 6.48593 110.327 6.47998L110.837 6.49998Z" fill="white"/>
<path d="M92.3773 20.75C92.594 20.7155 92.8079 20.6654 93.0173 20.6C93.5031 20.4761 94.0171 20.5293 94.4673 20.75C94.9199 20.9729 95.2755 21.3534 95.4673 21.82L95.8973 22.82C95.7773 22.89 95.6073 22.97 95.3873 23.07L94.4973 23.42C94.1724 23.5488 93.8381 23.6525 93.4973 23.73C92.8982 23.8855 92.2905 24.0057 91.6773 24.09C90.9719 24.1918 90.26 24.2419 89.5473 24.24C88.3491 24.2653 87.1553 24.0861 86.0173 23.71C85.1056 23.4149 84.2903 22.8794 83.6573 22.16C83.0309 21.394 82.617 20.4766 82.4573 19.5C82.1354 16.967 82.5123 14.3942 83.5473 12.06C84.0141 11.0195 84.6683 10.0738 85.4773 9.26999C86.257 8.50468 87.1818 7.9029 88.1973 7.49999C89.2759 7.1029 90.418 6.90633 91.5673 6.91999C92.6607 6.89002 93.749 7.08047 94.7673 7.47999C95.5645 7.81142 96.2561 8.35428 96.7673 9.04999C97.2834 9.75351 97.626 10.569 97.7673 11.43C97.9117 12.4248 97.9117 13.4352 97.7673 14.43L97.6973 15.11C97.6541 15.5477 97.4678 15.9589 97.1673 16.28C96.894 16.5286 96.5367 16.6644 96.1673 16.66H86.7773C86.6888 17.25 86.6888 17.85 86.7773 18.44C86.846 18.9314 87.0274 19.4003 87.3073 19.81C87.6187 20.1968 88.0355 20.4851 88.5073 20.64C89.1044 20.8646 89.7397 20.9699 90.3773 20.95C91.0489 20.9488 91.7188 20.8818 92.3773 20.75ZM87.6073 12.33C87.4023 12.8187 87.2514 13.3284 87.1573 13.85H93.6273C93.861 12.8845 93.744 11.8673 93.2973 10.98C93.0383 10.6255 92.6898 10.3462 92.2874 10.1705C91.8851 9.99481 91.4434 9.92907 91.0073 9.97999C90.5007 9.97634 89.9993 10.0821 89.5373 10.29C89.1189 10.4953 88.7425 10.7768 88.4273 11.12C88.0952 11.4802 87.8189 11.8881 87.6073 12.33Z" fill="white"/>
<path d="M133.677 2.49998C134.837 2.86837 135.954 3.36124 137.007 3.96998L136.577 5.05998C136.476 5.31686 136.322 5.54988 136.126 5.74437C135.929 5.93885 135.695 6.09058 135.437 6.18998C134.928 6.40055 134.356 6.40055 133.847 6.18998C133.52 6.06165 133.186 5.95149 132.847 5.85998C132.069 5.64744 131.264 5.54643 130.457 5.55998C129.519 5.55041 128.589 5.72364 127.717 6.06998C126.896 6.40108 126.146 6.8865 125.507 7.49998C124.829 8.1401 124.279 8.90376 123.887 9.74998C123.447 10.6546 123.153 11.6233 123.017 12.62C122.845 13.6361 122.845 14.6739 123.017 15.69C123.173 16.4979 123.515 17.2582 124.017 17.91C124.488 18.5101 125.114 18.9701 125.827 19.24C126.625 19.5589 127.478 19.7153 128.337 19.7C128.801 19.697 129.263 19.6501 129.717 19.56C130.187 19.4616 130.644 19.3072 131.077 19.1L131.897 14.42H128.077L128.467 12.58C128.545 12.219 128.742 11.8949 129.027 11.66C129.31 11.4295 129.663 11.3025 130.027 11.3H135.317C135.467 11.2963 135.616 11.3201 135.757 11.37C135.884 11.4389 135.993 11.536 136.077 11.654C136.16 11.7719 136.215 11.9074 136.237 12.05C136.267 12.2354 136.267 12.4245 136.237 12.61L134.857 21.61C134.487 21.76 134.157 21.88 133.857 21.98L132.967 22.31C132.687 22.41 132.367 22.5 131.967 22.6C131.567 22.7 131.247 22.77 130.967 22.82C130.425 22.9293 129.878 23.0094 129.327 23.06C128.767 23.06 128.207 23.13 127.657 23.13C126.21 23.1612 124.769 22.9239 123.407 22.43C122.255 22.0358 121.228 21.3431 120.43 20.4226C119.633 19.5022 119.093 18.3867 118.867 17.19C118.575 15.7677 118.541 14.3043 118.767 12.87C118.966 11.3115 119.433 9.79909 120.147 8.39998C120.794 7.12297 121.68 5.98225 122.757 5.03998C123.718 4.18656 124.821 3.50949 126.017 3.03998H126.087L126.377 2.91998C127.679 2.40824 129.069 2.16339 130.467 2.19998C130.921 2.19998 131.451 2.21998 132.057 2.25998C132.603 2.29555 133.145 2.37582 133.677 2.49998Z" fill="white"/>
</g>
<defs>
<linearGradient id="paint0_linear_15487_13934" x1="113.645" y1="12.65" x2="153.778" y2="26.6968" gradientUnits="userSpaceOnUse">
<stop stop-color="#FF951A"/>
<stop offset="1" stop-color="#F95601"/>
</linearGradient>
<linearGradient id="paint1_linear_15487_13934" x1="-0.0927061" y1="11.95" x2="11.9873" y2="11.95" gradientUnits="userSpaceOnUse">
<stop stop-color="#FF951A"/>
<stop offset="1" stop-color="#F95601"/>
</linearGradient>
<clipPath id="clip0_15487_13934">
<rect width="158.68" height="25.3" fill="white"/>
</clipPath>
</defs>
</svg>
