<svg width="301" height="294" viewBox="0 0 301 294" fill="none" xmlns="http://www.w3.org/2000/svg">
<path opacity="0.1" d="M186.246 259.119C186.246 257.422 186.949 255.795 188.199 254.595C189.449 253.395 191.145 252.721 192.913 252.721C194.681 252.721 196.377 253.395 197.627 254.595C198.877 255.795 199.579 257.422 199.579 259.119C199.579 260.816 198.877 262.443 197.627 263.643C196.377 264.843 194.681 265.517 192.913 265.517C191.145 265.517 189.449 264.843 188.199 263.643C186.949 262.443 186.246 260.816 186.246 259.119ZM217.912 246.323C217.912 242.929 219.317 239.675 221.817 237.275C224.318 234.875 227.709 233.527 231.245 233.527C234.781 233.527 238.172 234.875 240.673 237.275C243.173 239.675 244.578 242.929 244.578 246.323C244.578 249.717 243.173 252.972 240.673 255.371C238.172 257.771 234.781 259.119 231.245 259.119C227.709 259.119 224.318 257.771 221.817 255.371C219.317 252.972 217.912 249.717 217.912 246.323ZM114.564 229.448C81.4196 227.638 28.6773 229.905 7.3646 195.509C-13.9481 161.114 12.7516 103.168 64.8417 91.4035C116.932 79.6391 152.914 47.953 191.263 18.5334C229.612 -10.8862 272.229 38.8999 286.91 72.8461C301.591 106.792 272.821 110.011 272.348 127.209C271.874 144.407 310.586 156.578 298.748 179.208C287.26 201.169 155.819 229.527 117.77 229.527C116.608 229.528 115.537 229.501 114.557 229.448H114.564ZM247.911 6.398C247.911 4.70115 248.614 3.07379 249.864 1.87393C251.114 0.674074 252.81 0 254.578 0C256.346 0 258.041 0.674074 259.292 1.87393C260.542 3.07379 261.244 4.70115 261.244 6.398C261.244 8.09486 260.542 9.72221 259.292 10.9221C258.041 12.1219 256.346 12.796 254.578 12.796C252.81 12.796 251.114 12.1219 249.864 10.9221C248.614 9.72221 247.911 8.09486 247.911 6.398Z" fill="#1492E6"/>
<path d="M184.735 41.0497L190.476 43.1458L193.628 43.5174L200.495 39.8586L194.247 63.6989L184.79 62.5841L184.735 41.0497Z" fill="#00977C"/>
<path d="M173.058 63.2475V171.876C173.058 175.589 174.941 178.552 180.556 179.075C186.171 179.598 251.198 184.773 255.665 185.094C260.131 185.416 265.14 185.291 265.14 178.263V54.6243C265.14 51.787 264.292 50.2898 258.488 50.9088C252.684 51.5278 184.237 56.8352 179.906 57.1889C178.195 57.2324 176.557 57.8701 175.298 58.9841C174.039 60.0982 173.243 61.613 173.058 63.2475Z" fill="#4234FF"/>
<path d="M166.705 63.2475V171.876C166.705 175.589 168.588 178.552 174.203 179.075C179.818 179.598 244.845 184.773 249.312 185.094C253.779 185.416 258.787 185.291 258.787 178.263V54.6243C258.787 51.787 257.939 50.2898 252.135 50.9088C246.331 51.5278 177.884 56.8352 173.554 57.1889C171.842 57.2324 170.205 57.8701 168.945 58.9841C167.686 60.0982 166.89 61.613 166.705 63.2475Z" fill="url(#paint0_linear_4101_6249)"/>
<path opacity="0.5" d="M171.431 167.913V71.1005C171.431 65.8543 177.682 65.2641 177.682 65.2641L244.216 59.928C244.216 59.928 253.204 59.1658 253.204 65.3847V172.636C253.204 177.11 252.569 179.792 245.285 179.209L178.035 173.357C173.587 172.97 171.431 171.598 171.431 167.913Z" fill="white"/>
<path d="M171.432 120.462V71.0982C171.432 65.852 177.683 65.2622 177.683 65.2622L244.217 59.926C244.217 59.926 253.205 59.1639 253.205 65.3828V108.377C253.205 175.307 244.584 175.559 240.069 174.763C167.108 160.965 156.883 152.738 156.883 152.738C150.153 148.424 171.432 139.744 171.432 120.462Z" fill="white"/>
<path d="M281.684 24.7588C281.684 24.7588 239.609 44.7081 193.091 46.9804C146.572 49.2527 104.732 32.8391 104.732 32.8391C104.732 32.8391 140.792 51.013 193.091 48.4084C245.389 45.8039 281.684 24.7588 281.684 24.7588Z" fill="url(#paint1_linear_4101_6249)"/>
<path d="M177.017 35.4536L184.19 40.644L187.335 40.2196L192.741 33.3318L194.458 66.9712L185.023 68.2443L177.017 35.4536Z" fill="#1DC8A9"/>
<path d="M178.981 82.8137L239.892 78.5449M181.204 94.3393L220.329 91.7781M181.204 105.011L220.329 102.45" stroke="#5599FF" stroke-width="3"/>
<path opacity="0.9" d="M230.322 151.557C229.842 151.557 229.351 151.489 228.883 151.354C227.947 151.085 227.409 150.13 227.691 149.231C227.972 148.333 228.966 147.816 229.902 148.086C230.405 148.233 230.943 148.098 231.317 147.75L235.916 143.337C236.466 142.81 236.467 141.945 235.917 141.417L231.322 137.001C230.784 136.484 229.86 136.484 229.321 137L224.722 141.413C224.36 141.761 224.219 142.266 224.359 142.749C224.628 143.659 224.078 144.603 223.13 144.861C222.183 145.119 221.2 144.59 220.931 143.68C220.441 142.018 220.933 140.221 222.208 139.008L226.807 134.596C227.743 133.698 228.995 133.193 230.329 133.193C231.662 133.194 232.902 133.688 233.849 134.598L238.445 139.014C240.386 140.879 240.385 143.9 238.442 145.764L233.843 150.177C232.895 151.075 231.62 151.558 230.322 151.557Z" fill="#6CA6FF"/>
<path opacity="0.9" d="M216.571 164.761C215.249 164.76 213.998 164.266 213.051 163.367L208.455 158.951C207.52 158.052 206.994 156.85 206.994 155.57C206.995 154.29 207.51 153.099 208.458 152.19L213.057 147.777C214.309 146.576 216.146 146.105 217.854 146.543C218.801 146.78 219.374 147.723 219.116 148.633C218.858 149.543 217.887 150.093 216.94 149.845C216.449 149.721 215.934 149.856 215.571 150.193L210.972 154.605C210.703 154.864 210.562 155.201 210.562 155.571C210.562 155.931 210.714 156.279 210.971 156.537L215.567 160.953C216.105 161.47 217.041 161.47 217.567 160.954L222.166 156.541C222.529 156.193 222.669 155.688 222.529 155.205C222.261 154.295 222.811 153.351 223.758 153.093C224.706 152.835 225.688 153.364 225.957 154.273C226.448 155.936 225.956 157.733 224.692 158.957L220.081 163.369C219.145 164.267 217.893 164.761 216.571 164.761Z" fill="#6CA6FF"/>
<path opacity="0.9" d="M219.921 154.07C219.464 154.069 219.008 153.901 218.669 153.564C217.979 152.901 217.98 151.811 218.67 151.149L225.645 144.457C226.335 143.795 227.47 143.795 228.16 144.458C228.85 145.121 228.849 146.21 228.159 146.873L221.184 153.564C220.821 153.901 220.377 154.07 219.921 154.07Z" fill="#6CA6FF"/>
<g opacity="0.2">
<path opacity="0.9" d="M226.765 146.435C226.285 146.434 225.794 146.367 225.326 146.232C224.391 145.962 223.853 145.007 224.134 144.109C224.415 143.21 225.41 142.694 226.345 142.964C226.848 143.11 227.386 142.975 227.761 142.627L232.36 138.215C232.91 137.687 232.91 136.822 232.361 136.294L227.765 131.879C227.227 131.362 226.303 131.361 225.765 131.878L221.166 136.29C220.803 136.638 220.662 137.144 220.803 137.627C221.071 138.537 220.521 139.48 219.573 139.738C218.626 139.996 217.643 139.468 217.375 138.558C216.884 136.895 217.376 135.099 218.652 133.886L223.251 129.473C224.187 128.575 225.439 128.07 226.772 128.071C228.106 128.071 229.346 128.566 230.293 129.476L234.888 133.891C236.829 135.757 236.828 138.778 234.886 140.642L230.287 145.054C229.339 145.952 228.063 146.435 226.765 146.435Z" fill="#6CA6FF"/>
<path opacity="0.9" d="M213.015 159.638C211.693 159.638 210.441 159.143 209.494 158.244L204.899 153.829C203.963 152.93 203.437 151.728 203.438 150.447C203.438 149.167 203.953 147.977 204.901 147.067L209.5 142.655C210.752 141.453 212.589 140.982 214.297 141.421C215.244 141.657 215.817 142.601 215.559 143.51C215.302 144.42 214.331 144.97 213.383 144.723C212.892 144.599 212.377 144.733 212.014 145.07L207.415 149.483C207.146 149.741 207.006 150.078 207.006 150.449C207.005 150.808 207.157 151.156 207.415 151.415L212.01 155.83C212.548 156.347 213.484 156.348 214.011 155.831L218.609 151.418C218.972 151.07 219.113 150.565 218.973 150.082C218.704 149.172 219.254 148.229 220.202 147.971C221.149 147.713 222.132 148.241 222.4 149.151C222.891 150.813 222.399 152.61 221.135 153.834L216.525 158.247C215.588 159.145 214.337 159.639 213.015 159.638Z" fill="#6CA6FF"/>
<path opacity="0.9" d="M216.364 148.947C215.908 148.947 215.452 148.778 215.112 148.441C214.423 147.778 214.423 146.689 215.113 146.026L222.088 139.334C222.778 138.672 223.913 138.672 224.603 139.335C225.293 139.998 225.292 141.088 224.602 141.75L217.628 148.442C217.265 148.779 216.82 148.947 216.364 148.947Z" fill="#6CA6FF"/>
</g>
<path d="M41 278L42.1093 268H61L60.2969 277L41 278Z" fill="#FFB7B7"/>
<path d="M117.166 275.439L116.245 267.871H97.0013L97.7181 276.225L117.166 275.439Z" fill="#FFB7B7"/>
<path d="M40.201 276.192L39.496 280.397C39.496 280.397 24.4503 281.111 13.4707 293.953H60.6413V276.295L40.201 276.192Z" fill="#0047B3"/>
<path d="M117.757 275.205L118.462 279.41C118.462 279.41 133.508 280.124 144.487 292.966H97.3167V275.308L117.757 275.205Z" fill="#0047B3"/>
<path d="M0.000152588 291.794H161.225V293.875H0.000152588V291.794Z" fill="white"/>
<path d="M108.732 157.776L118.578 273.072H91.7442L81.7894 169.257L66.0773 273.072H38.486L54.3204 157.776H108.732Z" fill="#0047B3"/>
<path d="M40 269.5H65.4999" stroke="white" stroke-opacity="0.8" stroke-width="0.4"/>
<path d="M92 269H117.5" stroke="white" stroke-opacity="0.8" stroke-width="0.4"/>
<path d="M157.577 101.909C155.708 99.7274 152.706 99.2218 150.906 100.785L147.789 103.493L147.362 107.532C147.284 108.271 146.614 108.698 145.873 108.479C145.131 108.261 144.589 107.478 144.667 106.738L144.729 106.15L141.415 109.028C139.614 110.592 139.67 113.656 141.539 115.838C143.408 118.019 146.41 118.525 148.21 116.961L157.702 108.718C159.502 107.154 159.446 104.09 157.577 101.909Z" fill="#FFB7B7"/>
<path d="M148.562 101.711C148.642 100.807 147.971 99.8381 147.07 99.5574C146.17 99.2768 145.368 99.7866 145.288 100.691L144.801 106.203L148.448 103.005L148.562 101.711Z" fill="#FFB7B7"/>
<path d="M145.905 108.512C146.645 108.73 147.314 108.305 147.392 107.566L147.818 103.533L144.762 106.186L144.7 106.774C144.622 107.511 145.164 108.294 145.905 108.512Z" fill="#FFB7B7"/>
<path d="M76.167 80.4745C76.2193 80.7097 76.2066 80.9564 76.1303 81.1839C76.054 81.4114 75.9176 81.6098 75.7378 81.7545C75.5581 81.8991 75.343 81.9838 75.1192 81.9979C74.8953 82.012 74.6725 81.955 74.4784 81.8339C73.7451 81.3743 73.7038 80.2461 73.9052 79.3575C74.1066 78.4689 74.4345 77.5273 74.1272 76.6749C73.8949 76.0231 73.3372 75.5858 72.9137 75.0593C72.5393 74.6006 72.2686 74.0545 72.123 73.4638C71.9774 72.8731 71.9608 72.2541 72.0746 71.6553C72.2013 71.0597 72.4781 70.5134 72.8745 70.0769C73.271 69.6403 73.7715 69.3305 74.3209 69.1817C75.4466 68.9031 76.7918 69.3683 77.6619 68.5521C78.2945 67.9616 78.3849 66.9365 78.8858 66.215C79.6604 65.1008 81.194 65.0061 82.4644 65.2735C83.7347 65.5409 85.0205 66.0646 86.2934 65.8055C87.3572 65.5883 88.2608 64.8501 89.2704 64.4127C90.3719 63.953 91.5789 63.8752 92.7233 64.19C93.8678 64.5049 94.8928 65.1968 95.6557 66.1695C96.4187 67.1422 96.8817 68.3473 96.9802 69.6171C97.0787 70.8869 96.8079 72.1582 96.2055 73.2542C95.7991 74.0613 95.1416 74.6877 94.3491 75.0231" fill="#0047B3"/>
<path d="M80.8577 104.977C82.5475 105.121 84.2247 104.58 85.5215 103.474C86.8183 102.368 87.6289 100.786 87.7756 99.0757C87.8748 97.9179 87.9632 96.8643 88.0209 96.1716C88.0614 95.6853 88.4469 95.295 88.9201 95.1756C90.3887 94.805 93.3224 93.5888 93.6378 89.7578C94.0594 84.6384 93.9969 73.5084 93.9965 73.4466C93.9965 73.4447 93.9965 73.4454 93.9965 73.4435V73.3754C93.9965 73.0028 93.7906 72.6587 93.4538 72.4995C88.0165 69.9287 81.6078 70.8037 76.5012 74.0548C76.2381 74.2223 76.0759 74.5084 76.057 74.8197L76.0229 75.3841L75.5 86.9375L75.0006 98.4298C74.9791 100.068 75.5712 101.655 76.6578 102.869C77.7444 104.084 79.245 104.837 80.8577 104.977Z" fill="#FFB7B7"/>
<path d="M91.6184 81.9205C91.4299 81.8415 91.2701 81.7084 91.1599 81.5386C91.0496 81.3687 90.9941 81.1702 91.0005 80.9688C91.0069 80.7674 91.075 80.5726 91.1959 80.4099C91.3167 80.2472 91.4847 80.1242 91.6778 80.057C91.9048 79.9744 92.1555 79.9818 92.3771 80.0776C92.5667 80.156 92.7277 80.2891 92.8388 80.4594C92.9499 80.6296 93.0059 80.829 92.9995 81.0312C92.9931 81.2334 92.9245 81.4289 92.8027 81.592C92.681 81.755 92.5119 81.878 92.3177 81.9446C92.0902 82.026 91.8395 82.0174 91.6184 81.9205Z" fill="#263238"/>
<path d="M84.5771 80.1821C84.739 80.2966 84.8631 80.4565 84.934 80.6417C85.0048 80.8269 85.019 81.0289 84.9749 81.2222C84.9307 81.4155 84.8302 81.5913 84.6861 81.7274C84.5419 81.8634 84.3606 81.9535 84.1652 81.9863C83.9698 82.019 83.769 81.9929 83.5885 81.9113C83.4079 81.8297 83.2556 81.6963 83.1509 81.5279C83.0463 81.3596 82.9939 81.1639 83.0006 80.9658C83.0072 80.7676 83.0725 80.5759 83.1883 80.4149C83.3429 80.2014 83.5752 80.0574 83.835 80.0138C84.0949 79.9702 84.3615 80.0307 84.5771 80.1821Z" fill="#263238"/>
<path d="M87 85.8901C87 85.8382 87.477 85.7863 88.2497 85.7417C88.4478 85.7417 88.6152 85.7071 88.6403 85.6082C88.6629 85.4294 88.6281 85.2485 88.5398 85.0865L88.0461 83.6796C87.371 81.6743 86.9079 80.0275 87.0167 80.0003C87.1255 79.9731 87.7616 81.5704 88.4394 83.5757C88.5984 84.0703 88.7518 84.5326 88.8997 84.9901C89.0119 85.2248 89.0306 85.4864 88.9527 85.7319C88.9188 85.7948 88.869 85.8498 88.807 85.8927C88.745 85.9357 88.6727 85.9652 88.5956 85.9791C88.4836 85.9988 88.3691 86.0046 88.2553 85.9964C87.4742 85.9791 87 85.9396 87 85.8901Z" fill="#263238"/>
<path d="M85.0998 87.0825C84.4976 86.6243 86.7669 88.222 88 88.2511C88 88.2511 87.2163 89.4318 85.9853 88.8281C84.7057 88.2002 85.0998 87.0825 85.0998 87.0825Z" fill="white"/>
<path d="M75.7829 78.0412C75.6629 77.9958 71.685 77.4697 72.02 81.9724C72.355 86.4752 77 84.6591 77 84.5309C77 84.4027 75.7829 78.0412 75.7829 78.0412Z" fill="#FFB7B7"/>
<path d="M74.9953 83.5618C74.9753 83.5618 74.9255 83.6243 74.806 83.6949C74.637 83.7876 74.442 83.807 74.2605 83.7492C73.8046 83.608 73.3812 82.8666 73.3065 82.0437C73.2687 81.6523 73.313 81.2567 73.436 80.8867C73.4659 80.7403 73.528 80.604 73.617 80.4895C73.7059 80.375 73.8191 80.2858 73.9466 80.2295C74.0293 80.1991 74.1192 80.2011 74.2006 80.2353C74.2821 80.2696 74.3499 80.3338 74.3925 80.4169C74.4572 80.5391 74.4348 80.6342 74.4572 80.6396C74.4797 80.645 74.5444 80.5554 74.4971 80.368C74.4657 80.2573 74.4007 80.1616 74.3128 80.0965C74.1912 80.0108 74.0436 79.9806 73.9018 80.0123C73.7317 80.0622 73.5763 80.1592 73.4506 80.2939C73.3249 80.4285 73.2332 80.5962 73.1844 80.7808C73.0307 81.1917 72.9717 81.6374 73.0126 82.079C73.0998 82.9996 73.5904 83.8279 74.2107 83.98C74.3255 84.0078 74.4447 84.0066 74.5591 83.9765C74.6735 83.9463 74.7801 83.8881 74.8707 83.8062C74.9953 83.6731 75.0102 83.5699 74.9953 83.5618Z" fill="#FF9898"/>
<path d="M82.0101 77.9604C82.1301 78.1269 82.9403 77.7134 83.9987 77.7245C85.0571 77.7356 85.8727 78.1047 85.99 77.9354C86.0418 77.8577 85.8918 77.6329 85.5399 77.4109C85.0692 77.1383 84.5363 76.9966 83.9948 77.0001C83.4532 77.0035 82.9221 77.1519 82.4547 77.4303C82.1056 77.6579 81.9583 77.8855 82.0101 77.9604Z" fill="#263238"/>
<path d="M89.0101 77.9604C89.1301 78.1269 89.9403 77.7134 90.9987 77.7245C92.0571 77.7356 92.8727 78.1047 92.99 77.9354C93.0418 77.8577 92.8918 77.6329 92.5399 77.4109C92.0692 77.1383 91.5363 76.9966 90.9948 77.0001C90.4532 77.0035 89.9221 77.1519 89.4547 77.4303C89.1056 77.6579 88.9583 77.8855 89.0101 77.9604Z" fill="#263238"/>
<path d="M94.4995 75C94.4995 75 91.6144 76.6916 87.7567 74.4209C85.232 72.9288 82.2427 72.1311 81.5585 72.662C80.8743 73.1929 80.6395 76.0572 78.0543 76.7896C78.0543 76.7896 78.0543 82.265 76.0345 81.99C74.0148 81.715 75.575 73.2937 75.575 73.2937L80.3265 69.8849L85.7621 69L91.6927 69.9529L95 72.3026L94.4995 75Z" fill="#0047B3"/>
<path d="M76 68.0509C76.3717 68.0831 76.7372 68.1724 77.0854 68.316C77.4178 68.497 77.7252 68.7273 77.9984 69C78.0107 69 77.9517 68.8648 77.8089 68.6978C77.6184 68.4813 77.3896 68.3081 77.136 68.1883C76.8824 68.0686 76.6091 68.0047 76.3323 68.0005C76.1256 67.9952 75.9976 68.0297 76 68.0509Z" fill="#0047B3"/>
<path d="M77.3065 66C77.1948 66.1408 77.1274 66.2908 77.107 66.4437C76.9981 66.8079 76.9722 67.178 77.0299 67.5456C77.0859 67.9151 77.2608 68.2764 77.5467 68.613C77.649 68.7571 77.8031 68.8887 78 69C77.9212 68.8554 77.8212 68.7144 77.7008 68.5785C77.4638 68.2428 77.3113 67.8912 77.2475 67.5333C77.1897 67.1741 77.1897 66.8128 77.2475 66.4536C77.2979 66.304 77.3177 66.1519 77.3065 66Z" fill="#0047B3"/>
<path d="M44.3038 123.306C46.6244 115.013 49.3215 109.264 51.5867 105.448C53.9632 101.445 58.3497 99 63.0769 99H104.302C107.94 99 111.293 100.928 113.067 104.04L121.536 118.896C121.536 118.896 122.374 120.074 123.486 121.989L138.713 105.007C139.185 104.481 140.009 104.429 140.545 104.89L152.574 115.24C153.092 115.687 153.146 116.465 152.69 116.973C149.259 120.8 135.886 135.716 126.75 145.91C126.405 146.394 126.013 146.861 125.571 147.306C125.371 147.509 125.172 147.702 124.976 147.89C124.643 148.261 124.317 148.625 124.001 148.977C122.646 150.489 120.881 151.444 119.008 151.842C116.062 152.837 113.881 151.993 112.426 150.878C111.89 150.579 111.377 150.223 110.896 149.809C110.605 149.559 110.34 149.29 110.089 149.013L109.037 159H54.4866L55.4871 145.019C38.1412 143.058 39.1417 141.751 44.3038 123.306Z" fill="#287EFF"/>
<path d="M109.756 149.991C110.638 150.746 108.849 102 108.849 102L108 147.375C108 147.376 108.873 149.237 109.756 149.991Z" fill="#0E39BE"/>
<path d="M109 108V148" stroke="white" stroke-width="0.3" stroke-linecap="round" stroke-linejoin="round"/>
<path d="M98.6237 154L110 120.957L89.7831 114L78 147.307L98.6237 154Z" fill="#FFB000"/>
<path d="M103.624 153L115 119.957L94.7831 113L83 146.307L103.624 153Z" fill="#1DC8A9"/>
<path d="M85.2265 134.263H94.0871L96.7256 131.373C97.1357 130.924 97.8614 130.873 98.338 131.26C98.8146 131.647 98.8684 132.331 98.4583 132.78L97.104 134.263H98.8367C101.677 134.263 104 136.454 104 139.131C104 141.809 101.677 144 98.8367 144H85L85.2265 134.263Z" fill="#FFB7B7"/>
<path d="M48.1036 145.071L87.3705 146C88.0718 146.016 88.6609 145.516 88.6796 144.887L88.9996 134.028C89.0167 133.441 88.4948 132.948 87.8395 132.933L48.4888 132.002C44.4773 131.907 41.1084 134.77 41.0026 138.364C40.8967 141.958 44.0921 144.977 48.1036 145.071Z" fill="#287EFF"/>
<path d="M80 134L57.3634 130.932L58.8261 116L55 132.396L80 134Z" fill="#0E39BE"/>
<path d="M85.7678 146.186L86 147H55L55.1817 145L58.8389 145.503L85.7678 146.186Z" fill="#004CBD"/>
<path d="M151.304 114.33L140.777 106.086C139.984 105.465 138.854 105.531 138.138 106.239L135 109.342L149.049 120L151.551 117.251C152.333 116.391 152.22 115.047 151.304 114.33Z" fill="#FFD164"/>
<path d="M70 160C68.1667 161.8 67.5 169.326 56.5 170.798L52 209.5L43 267" stroke="white" stroke-dasharray="2 2"/>
<path d="M92 160C93 161.937 95 169.683 106.5 170.652L108.5 215.5L113 267" stroke="white" stroke-dasharray="2 2"/>
<path d="M55 132L89 132.519L88.4848 146" stroke="white" stroke-width="0.3" stroke-linecap="round" stroke-linejoin="round"/>
<path d="M55 132L59 117" stroke="white" stroke-width="0.3" stroke-linecap="round" stroke-linejoin="round"/>
<path d="M55 146H89" stroke="white" stroke-width="0.3" stroke-linecap="round" stroke-linejoin="round"/>
<path d="M65.7014 118.295C64.8041 118.403 63.8972 118.403 63 118.295C63.8972 118.187 64.8041 118.187 65.7014 118.295Z" fill="white"/>
<path d="M67.1361 114C67.2441 115.065 67.2441 116.138 67.1361 117.202C67.0282 116.138 67.0282 115.065 67.1361 114Z" fill="white"/>
<path d="M68.6519 118.192C69.5491 118.084 70.456 118.084 71.3532 118.192C70.456 118.3 69.5491 118.3 68.6519 118.192Z" fill="white"/>
<path d="M67.0809 122.932C66.973 121.866 66.973 120.792 67.0809 119.726C67.1888 120.792 67.1888 121.866 67.0809 122.932Z" fill="white"/>
<path d="M69.4143 120.645C69.377 120.67 69.1311 120.389 68.8666 120.022C68.6838 119.811 68.5433 119.567 68.4526 119.303C68.49 119.278 68.7327 119.555 69.0004 119.926C69.1826 120.137 69.3231 120.381 69.4143 120.645Z" fill="white"/>
<path d="M68.9998 115.728C69.034 115.756 68.8379 116.04 68.5641 116.369C68.2902 116.699 68.0381 116.933 68.0039 116.905C67.9696 116.877 68.1657 116.594 68.4396 116.264C68.7135 115.934 68.978 115.7 68.9998 115.728Z" fill="white"/>
<path d="M66.19 117.016C66.1588 117.047 65.9223 116.866 65.6578 116.611C65.3932 116.356 65.2096 116.123 65.2407 116.091C65.2719 116.06 65.5115 116.241 65.7729 116.496C66.0343 116.751 66.2211 116.981 66.19 117.016Z" fill="white"/>
<path d="M66.0687 119.16C66.103 119.188 65.9318 119.471 65.6797 119.782C65.4276 120.094 65.2004 120.339 65.1631 120.311C65.2488 120.08 65.3812 119.868 65.5521 119.689C65.8011 119.372 66.0345 119.132 66.0687 119.16Z" fill="white"/>
<path d="M99.1111 123L99.1982 123.212C99.2748 123.396 99.3871 123.563 99.5286 123.703C99.6702 123.844 99.8382 123.955 100.023 124.03L100.256 124.124L100.032 124.214C99.8452 124.29 99.6754 124.404 99.5327 124.547C99.39 124.69 99.2773 124.86 99.2013 125.048L99.1391 125.203L99.0457 125.007C98.8752 124.653 98.5724 124.379 98.2023 124.245L98 124.17L98.2645 124.043C98.595 123.88 98.8557 123.604 98.999 123.265L99.1111 123Z" fill="white"/>
<path d="M104.985 135L105.062 135.192C105.13 135.359 105.229 135.511 105.355 135.638C105.48 135.766 105.629 135.867 105.793 135.935L106 136.02L105.801 136.102C105.636 136.171 105.485 136.274 105.359 136.404C105.232 136.534 105.132 136.689 105.065 136.859L105.01 137L104.927 136.822C104.776 136.5 104.507 136.252 104.179 136.13L104 136.062L104.234 135.946C104.528 135.8 104.759 135.549 104.886 135.24L104.985 135Z" fill="white"/>
<path d="M81.5 169L75 201" stroke="white" stroke-width="0.3"/>
<path d="M39.5 281C32.5 282.5 24.5 284.5 17 291.5" stroke="white" stroke-width="0.4" stroke-dasharray="0.8 0.8"/>
<path d="M119 280C126 281.5 135.5 284.5 142 291" stroke="white" stroke-width="0.4" stroke-dasharray="0.8 0.8"/>
<defs>
<linearGradient id="paint0_linear_4101_6249" x1="156.751" y1="164.774" x2="263.682" y2="79.8985" gradientUnits="userSpaceOnUse">
<stop stop-color="#8FD2FF"/>
<stop offset="1" stop-color="#2212FF"/>
</linearGradient>
<linearGradient id="paint1_linear_4101_6249" x1="116.737" y1="8.5375" x2="280.107" y2="69.5363" gradientUnits="userSpaceOnUse">
<stop stop-color="#1C8DCF"/>
<stop offset="0.9375" stop-color="white"/>
</linearGradient>
</defs>
</svg>
 